PathFileType	4	(X/Y/Z)	C:\Users\Alexander Denk\OneDrive - Universitaet Duisburg-Essen\Dokumente\GitHub\artisynth_dissertation_models\src\artisynth\models\gait_model\Models\EP010DR1980_BE_3Gang01\Input\EP010DR1980_BE_3Gang01_positions.trc
DataRate	CameraRate	NumFrames	NumMarkers	Units	OrigDataRate	OrigDataStartFrame	OrigNumFrames
100	100	4	41	m	100	51	103
Frame#	Time	LFHD			RFHD			LBHD			RBHD			C7			T10			CLAV			STRN			RBAK			LSHO			LUPA			LELB			LFRM			LWRA			LWRB			LFIN			RSHO			RUPA			RELB			RFRM			RWRA			RWRB			RFIN			LASI			RASI			LPSI			RPSI			LTHI			LKNE			LTIB			LANK			LTOE			LBTO			LHEE			RKNE			RTIB			RANK			RTOE			RBTO			RHEE			RTHI			
		X1	Y1	Z1	X2	Y2	Z2	X3	Y3	Z3	X4	Y4	Z4	X5	Y5	Z5	X6	Y6	Z6	X7	Y7	Z7	X8	Y8	Z8	X9	Y9	Z9	X10	Y10	Z10	X11	Y11	Z11	X12	Y12	Z12	X13	Y13	Z13	X14	Y14	Z14	X15	Y15	Z15	X16	Y16	Z16	X17	Y17	Z17	X18	Y18	Z18	X19	Y19	Z19	X20	Y20	Z20	X21	Y21	Z21	X22	Y22	Z22	X23	Y23	Z23	X24	Y24	Z24	X25	Y25	Z25	X26	Y26	Z26	X27	Y27	Z27	X28	Y28	Z28	X29	Y29	Z29	X30	Y30	Z30	X31	Y31	Z31	X32	Y32	Z32	X33	Y33	Z33	X34	Y34	Z34	X35	Y35	Z35	X36	Y36	Z36	X37	Y37	Z37	X38	Y38	Z38	X39	Y39	Z39	X40	Y40	Z40	X41	Y41	Z41	X42	Y42	Z42	X43	Y43	Z43	

52	0.51	0.216723022460937	1.71318994140625	0.0271513900756838	0.34508935546875	1.71770300292969	0.0324868392944337	0.202118423461914	1.63784521484375	0.163532432556153	0.353031494140625	1.64056372070312	0.164813255310059	0.276022888183594	1.53704638671875	0.216304344177246	0.245827026367188	1.25781115722656	0.285552207946777	0.274161499023438	1.40228088378906	0.0713500595092775	0.263862945556641	1.26993273925781	0.0496114730834962	0.416660858154297	1.42877917480469	0.25434236907959	0.0808260650634766	1.49516650390625	0.141335716247559	0.0324217796325684	1.35196081542969	0.126653831481934	-0.00526671934127808	1.16080053710938	0.0959917221069337	0.0165734519958496	0.932562805175781	0.00628108978271502	0.0662319259643555	0.904442687988281	-0.00532724761962888	0.00623699617385864	0.888289916992188	0.0409608383178711	0.0337502632141113	0.832942565917969	-0.0596994400024413	0.468401519775391	1.48203076171875	0.156945030212403	0.528893249511719	1.21564562988281	0.174018394470215	0.541670349121094	1.12057141113281	0.168919334411621	0.52081494140625	0.90035546875	0.114593589782715	0.468930999755859	0.865980346679687	0.0757090072631836	0.509863311767578	0.847623168945313	0.141380516052246	0.506125061035156	0.76881298828125	0.0498420028686524	0.118684959411621	1.027703125	0.0865340805053713	0.381527008056641	1.03504772949219	0.0777394638061525	0.225088394165039	1.07434411621094	0.258461204528809	0.291724761962891	1.07184631347656	0.258501731872559	0.0938730316162109	0.659929504394531	0.211793449401856	0.113905738830566	0.509959167480469	0.277261039733887	0.111067077636719	0.367694244384766	0.356209526062012	0.160445846557617	0.1116640625	0.51853150177002	0.174736740112305	0.0353490715026856	0.386419303894043	0.198199447631836	0.0320145835876465	0.330799674987793	0.193329177856445	0.104083969116211	0.592284797668457	0.397884124755859	0.500367858886719	-0.00291593170166005	0.403287261962891	0.341244445800781	-0.0343317642211913	0.352578460693359	0.0680119934082032	-0.117780738830566	0.37151904296875	0.0892769775390626	-0.273841896057129	0.362060699462891	0.111116645812988	-0.32856485748291	0.299426483154297	0.0193488140106202	-0.0790239639282226	0.422050842285156	0.657611267089844	0.0253184432983399
53	0.52	0.218910827636719	1.71329284667969	0.0272021203134576	0.347381805419922	1.71783703613281	0.032200533399395	0.204460510253906	1.63779467773438	0.163507479200176	0.355371948242187	1.64048425292969	0.164597506055645	0.278329620361328	1.53689782714844	0.216089602002911	0.247642959594727	1.25756665039063	0.284903078565411	0.276194091796875	1.40238793945313	0.0708556847665825	0.265755920410156	1.27013720703125	0.0488163170908013	0.418845764160156	1.42830395507813	0.253812044629864	0.0829824371337891	1.49521142578125	0.141342318067364	0.0346089973449707	1.35201733398438	0.126692537793926	-0.00333005809783936	1.16090185546875	0.0960426354501763	0.0175092220306396	0.932494201660156	0.00650454951267632	0.0670188522338867	0.904251708984375	-0.00535867070216756	0.00727937412261963	0.888281555175781	0.04130331660252	0.0339750556945801	0.832780151367188	-0.0594233679677926	0.470600646972656	1.48165295410156	0.156512117872051	0.530505676269531	1.21506701660156	0.172994478711895	0.543079345703125	1.12002026367188	0.167800692090801	0.522116271972656	0.899729858398438	0.113817537793926	0.470218017578125	0.865300109863281	0.0750397667978324	0.511201354980469	0.847046936035156	0.140671907911114	0.507388275146484	0.76802197265625	0.0493929162118949	0.120158996582031	1.02753869628906	0.0852034630868951	0.383022552490234	1.03560205078125	0.0762130456064263	0.226320220947266	1.0741357421875	0.257175661573223	0.293002532958984	1.071697265625	0.257299776563457	0.0942151336669922	0.659028869628906	0.208085299024395	0.113363487243652	0.509095245361328	0.272609102735333	0.110148666381836	0.369295593261719	0.355284426221661	0.159628921508789	0.118979782104492	0.526716097364239	0.175075439453125	0.0351932411193848	0.400200258741192	0.198731246948242	0.0319323387145996	0.345214235791973	0.192925064086914	0.115539657592773	0.600235262403301	0.398886749267578	0.501218200683594	-0.00539535283107384	0.403354064941406	0.341151458740234	-0.0329741492177926	0.352190643310547	0.0665850296020508	-0.107733853807636	0.370312194824219	0.0803718719482422	-0.26499990605373	0.360603637695313	0.0994585876464844	-0.321088712206074	0.299210266113281	0.0203142700195313	-0.0662358679677926	0.422324829101562	0.659020935058594	0.0221045250986137
54	0.53	0.221131805419922	1.7136962890625	0.0272275209613877	0.349718963623047	1.71828295898438	0.0318646059223252	0.206839508056641	1.63804870605469	0.163463055629356	0.357751861572266	1.64071496582031	0.164353192348106	0.280670379638672	1.53705297851563	0.215852063197716	0.249489639282227	1.25765161132813	0.284276104945763	0.278235870361328	1.40279956054688	0.0703618593402939	0.267633850097656	1.27065051269531	0.0480527162738876	0.421074310302734	1.42814770507813	0.25324116231881	0.0851664657592773	1.49559033203125	0.141337628383263	0.0368303565979004	1.35240600585937	0.126755230922325	-0.00135837519168854	1.16130285644531	0.0962500429340439	0.0184315814971924	0.932662658691406	0.00702891256295013	0.0677897644042969	0.904281311035156	-0.00508308694876869	0.00831970119476318	0.888533020019531	0.0419768495746687	0.0341792869567871	0.832793884277344	-0.058755022983925	0.472817474365234	1.48158728027344	0.156030987758263	0.532151489257813	1.21480212402344	0.171891278285606	0.544523254394531	1.11978515625	0.166591168422325	0.523458557128906	0.89942578125	0.112909344691856	0.471544708251953	0.864941528320313	0.0742398500629501	0.512583068847656	0.846791870117187	0.139821209926231	0.508706512451172	0.767571655273438	0.0487869081684188	0.121688110351563	1.02768566894531	0.0839611025043564	0.384554626464844	1.03651623535156	0.0747310610004501	0.227558212280273	1.07427282714844	0.255948315639122	0.294309020996094	1.0718798828125	0.256132458705528	0.0945357818603516	0.658179077148437	0.203331707973106	0.112782691955566	0.508177490234375	0.266465008754356	0.10928662109375	0.371153961181641	0.352861493129356	0.158991348266602	0.127378829956055	0.53357220174752	0.175540130615234	0.0353859252929688	0.413913739223106	0.199339920043945	0.0317405986785889	0.3597920961567	0.192893585205078	0.128560668945313	0.606474637050255	0.400025939941406	0.502280364990234	-0.00735603616751868	0.403860229492188	0.341588470458984	-0.0314626645854874	0.352083374023438	0.0656881866455079	-0.0974311704448625	0.368601348876953	0.0723364868164063	-0.25585194681205	0.358368072509766	0.0887357559204102	-0.313030474644081	0.299409088134766	0.0216686553955079	-0.0533037290386125	0.42283935546875	0.660628601074219	0.0193767519184188
55	0.54	0.223371231079102	1.71439001464844	0.0272281413358803	0.352084106445313	1.71902856445313	0.0314826579374428	0.20923860168457	1.63860021972656	0.163401114968693	0.360153686523437	1.64124816894531	0.164084037331974	0.283032928466797	1.53750598144531	0.215595939187443	0.251366683959961	1.25806066894531	0.283684348611271	0.280269073486328	1.40350439453125	0.0698785929960365	0.269476440429687	1.2714580078125	0.0473380046171302	0.423338226318359	1.42830920410156	0.252630301980412	0.0873642425537109	1.49629711914063	0.141331779031193	0.0390679817199707	1.35312182617187	0.126851066140568	0.000630665242671967	1.16199963378906	0.0966197428983803	0.0193394241333008	0.933072143554687	0.00784746506634904	0.068546257019043	0.904537963867188	-0.00450354811724485	0.00935487842559814	0.889046142578125	0.0429705729765052	0.0343791084289551	0.832990966796875	-0.0577070393281823	0.475036834716797	1.48183117675781	0.15549767258588	0.533824829101562	1.21485144042969	0.170711478738224	0.545998840332031	1.11986608886719	0.16529552414838	0.524834838867188	0.8994443359375	0.111870475320255	0.472901336669922	0.864905944824219	0.0733140178007239	0.514002868652344	0.846858825683594	0.138830558328068	0.510066925048828	0.76746533203125	0.0480210490507239	0.123266403198242	1.02813952636719	0.0828402018827553	0.386116424560547	1.03775695800781	0.0733173136991615	0.228812835693359	1.07474609375	0.254807303933536	0.295651519775391	1.07238586425781	0.255020255593693	0.0948333511352539	0.65737841796875	0.197548881081974	0.112172737121582	0.507211547851563	0.258842978982365	0.10852222442627	0.373259338378906	0.348885001687443	0.158592376708984	0.136865676879883	0.538900413064396	0.176102264404297	0.0361687393188477	0.427305961160099	0.199946670532227	0.0314186592102051	0.374312186746036	0.193300628662109	0.143038299560547	0.610754661111271	0.401281555175781	0.503455322265625	-0.00861646315630737	0.404798492431641	0.342428253173828	-0.0297070393281823	0.352199615478516	0.0652131347656251	-0.0869532551484948	0.366488739013672	0.0653791046142579	-0.246373726339901	0.355500793457031	0.0792679595947266	-0.304323067160214	0.299944488525391	0.0232083034515381	-0.0404183430391198	0.423613586425781	0.662314575195313	0.0172910685819739
